<?xml version="1.0" encoding="iso-8859-1"?>
<!-- Generator: Adobe Illustrator 18.0.0, SVG Export Plug-In . SVG Version: 6.00 Build 0)  -->
<!DOCTYPE svg PUBLIC "-//W3C//DTD SVG 1.1//EN" "http://www.w3.org/Graphics/SVG/1.1/DTD/svg11.dtd">
<svg version="1.1" id="Capa_1" xmlns="http://www.w3.org/2000/svg" xmlns:xlink="http://www.w3.org/1999/xlink" x="0px" y="0px"
	 viewBox="0 0 373.655 373.655" style="enable-background:new 0 0 373.655 373.655;" xml:space="preserve">
<g>
	<path d="M184.436,78.748l-35.001,54.547c-0.605,0.942-0.6,2.151,0.012,3.088c0.612,0.937,1.714,1.429,2.823,1.253l22.868-3.611
		v10.509c0,7.223-2.929,10.458-9.022,16.52c-6.716,6.681-15.913,15.83-15.913,33.093c0,17.262,9.197,26.412,15.913,33.093
		c6.094,6.062,9.022,9.296,9.022,16.52c0,7.223-2.929,10.457-9.022,16.519c-6.715,6.68-15.913,15.83-15.913,33.092h23.378
		c0-7.223,2.929-10.456,9.022-16.518c6.715-6.681,15.913-15.83,15.913-33.092c0-17.263-9.198-26.413-15.913-33.093
		c-6.094-6.062-9.022-9.296-9.022-16.52c0-7.223,2.929-10.457,9.022-16.52c6.715-6.681,15.913-15.831,15.913-33.093v-10.509
		l22.868,3.611c0.148,0.023,0.297,0.035,0.444,0.035c0.95,0,1.849-0.477,2.379-1.288c0.612-0.937,0.617-2.146,0.012-3.088
		l-34.999-54.547c-0.522-0.814-1.424-1.307-2.392-1.307C185.86,77.441,184.959,77.934,184.436,78.748z"/>
	<path d="M369.261,176.221L197.434,4.394c-5.857-5.858-15.355-5.858-21.213,0L4.394,176.221c-5.858,5.858-5.858,15.355,0,21.213
		l171.827,171.827c2.929,2.929,6.768,4.394,10.606,4.394c3.839,0,7.678-1.464,10.606-4.394l171.827-171.827
		C375.119,191.576,375.119,182.079,369.261,176.221z M186.827,337.441L36.213,186.827L186.827,36.214l150.614,150.614
		L186.827,337.441z"/>
</g>
<g>
</g>
<g>
</g>
<g>
</g>
<g>
</g>
<g>
</g>
<g>
</g>
<g>
</g>
<g>
</g>
<g>
</g>
<g>
</g>
<g>
</g>
<g>
</g>
<g>
</g>
<g>
</g>
<g>
</g>
</svg>
