<?xml version='1.0' encoding='iso-8859-1'?>
<svg version="1.1" xmlns="http://www.w3.org/2000/svg" viewBox="0 0 264 264" xmlns:xlink="http://www.w3.org/1999/xlink" enable-background="new 0 0 264 264">
  <g>
    <path d="m188.405,123.5h-4.405v7h4.405c2.151,0 3.457-0.813 3.457-3.5 0-2.689-1.305-3.5-3.457-3.5z"/>
    <path d="m254.333,49.5h-155.333v-7c0-5.523-4.145-10-9.667-10h-79c-5.523,0-10.333,4.477-10.333,10v179c0,5.523 4.81,10 10.333,10h244c5.523,0 9.667-4.477 9.667-10v-162c0-5.523-4.145-10-9.667-10zm-235.057,74c-1.152,0-1.805-1.579-1.805-3.038 0-1.268 0.537-2.962 1.805-2.962h16.592c1.267,0 1.805,1.694 1.805,2.962 0,1.459-0.652,3.038-1.805,3.038h-5.868v20.656c0,1.229-1.502,1.844-3,1.844s-3-0.614-3-1.844v-20.656h-4.724zm23.724,13.667v-10.178c0-6.607 4.181-9.065 9.48-9.065 5.301,0 9.52,2.458 9.52,9.065v10.178c0,6.605-4.219,9.063-9.52,9.063-5.299,0-9.48-2.457-9.48-9.063zm46-10.217c0,6.452-4.206,8.55-9.507,8.55h-4.493v8.656c0,1.229-1.503,1.844-3.001,1.844-1.496,0-2.999-0.614-2.999-1.844v-24.426c0-0.961 1.583-2.23 2.928-2.23h7.95c5.069,0 9.122,2.806 9.122,9.259v0.191zm23.52,19.434c-5.031,0-9.256-2.458-9.256-4.992 0-1.307 1.152-3.227 2.612-3.227 1.805,0 2.957,2.842 6.528,2.842 1.767,0 3.726-0.691 3.726-2.534 0-4.648-12.175-3.841-12.175-12.828 0-5.761 5.031-7.95 9.832-7.95 2.036,0 7.643,0.384 7.643,3.38 0,1.037-0.691,3.149-2.381,3.149-1.383,0-2.112-1.46-5.262-1.46-2.727,0-3.841,1.114-3.841,2.305 0,3.841 12.175,3.111 12.175,12.789 0.001,5.531-4.031,8.526-9.601,8.526zm28.15-16.884c1.152,0 1.806,1.31 1.806,2.538 0,1.037-0.538,2.462-1.806,2.462h-5.67v6h10.202c1.152,0 1.805,1.617 1.805,3.039 0,1.229-0.537,2.961-1.805,2.961h-13.673c-1.306,0-2.529-1.114-2.529-2.344v-24.388c0-1.229 1.224-2.269 2.529-2.269h13.673c1.268,0 1.805,1.732 1.805,2.961 0,1.422-0.652,3.039-1.805,3.039h-10.202v6h5.67zm21.761,11.508c3.072,0 3.234-2.343 3.349-3.84 0.115-1.422 1.405-1.806 2.941-1.806 2.074,0 3.026,0.538 3.026,2.842 0,5.108-4.092,8.027-9.584,8.027-5.031,0-9.163-2.458-9.163-9.063v-10.178c0-6.607 4.127-9.065 9.159-9.065 5.492,0 9.61,2.766 9.61,7.643 0,2.305-0.974,2.843-3.009,2.843-1.613,0-2.926-0.423-3.004-1.806-0.038-0.998-0.094-3.456-3.358-3.456-2.189,0-3.397,1.229-3.397,3.841v10.178c-0.001,2.611 1.204,3.84 3.43,3.84zm31.889,5.223c-0.768,0-1.498-0.508-1.92-1.314l-5.262-10.416h-3.138v9.656c0,1.229-1.503,1.844-3.001,1.844-1.496,0-2.999-0.614-2.999-1.844v-24.426c0-0.961 1.342-2.23 2.455-2.23h7.95c5.262,0 9.448,2.172 9.448,8.432 0,4.301-1.959,6.865-4.648,7.902l4.686,8.541c0.154,0.23 0.192,0.526 0.192,0.718 0.001,1.498-1.996,3.137-3.763,3.137zm22.313-16.73c1.152,0 1.806,1.31 1.806,2.538 0,1.037-0.538,2.462-1.806,2.462h-5.633v6h10.165c1.152,0 1.805,1.617 1.805,3.039 0,1.229-0.537,2.961-1.805,2.961h-13.673c-1.306,0-2.492-1.114-2.492-2.344v-24.388c0-1.229 1.186-2.269 2.492-2.269h13.673c1.268,0 1.805,1.732 1.805,2.961 0,1.422-0.652,3.039-1.805,3.039h-10.165v6h5.633zm29.417-5.999h-6.05v20.656c0,1.229-1.502,1.844-3,1.844s-3-0.614-3-1.844v-20.656h-4.542c-1.152,0-1.805-1.579-1.805-3.038 0-1.268 0.537-2.962 1.805-2.962h16.592c1.268,0 1.805,1.694 1.805,2.962-2.84217e-14,1.459-0.653,3.038-1.805,3.038z"/>
    <path d="m79.493,123.5h-4.493v8h4.493c2.151,0 3.507-1.477 3.507-4.089v-0.422c0-2.612-1.356-3.489-3.507-3.489z"/>
    <path d="m56,137.167v-10.178c0-2.65-1.368-3.841-3.52-3.841-2.15,0-3.48,1.19-3.48,3.841v10.178c0,2.649 1.33,3.84 3.48,3.84 2.152,0 3.52-1.191 3.52-3.84z"/>
  </g>
</svg>
